:SAMPLES-PER-SECOND 30
:FULLY-SPECIFIED
:DEGREES
449
root  46.7595 34.8279 53.8587 5.55481 43.2259 -4.20914
LeftUpLeg  -8.47502 2.28938 12.5691
LeftLeg  9.69005 5.78484 0.606686
LeftFoot  4.65921 -0.0185494 0.462971
LeftToes  -25.6315 1.61378e-006 8.80029e-008
Spine  2.58327 2.05968 -0.124043
Spine1  4.84177 4.45917 -0.711288
RightShoulder  0.0363157 8.33817 4.72765
RightArm  -64.641 15.3754 35.5791
RightForeArm  9.55756 73.5259 36.7522
RightHand  1.96881 -18.9043 -11.4114
LeftShoulder1  0.0189753 -0.641211 -6.49084
LeftArm  -31.2219 13.2612 -65.5775
LeftForeArm  28.6184 -20.0444 -3.6808
LeftHand  0.093072 1.7852 5.57674
HEad  -2.77057 -42.5234 -6.81877
RightUpLeg  -11.5342 -14.537 -0.476323
RightLeg  7.98551 -1.92947 -0.143568
RightFoot  5.21844 0.0245337 -0.160786
RightToes  -32.7726 -0.163472 -0.270767
450
root  46.4607 34.8486 54.3486 5.33197 43.7676 -4.69745
LeftUpLeg  -8.47703 2.3075 13.516
LeftLeg  9.47154 7.13425 0.720391
LeftFoot  5.70716 -0.0352157 0.706477
LeftToes  -26.0328 1.61378e-006 8.80029e-008
Spine  2.51127 1.99565 0.153981
Spine1  4.70891 4.3441 -0.211783
RightShoulder  0.0375799 8.99713 5.28767
RightArm  -65.1033 14.9659 35.0793
RightForeArm  11.9566 73.6584 37.1406
RightHand  1.90775 -19.7093 -10.5764
LeftShoulder1  0.0165008 -0.4847 -6.34481
LeftArm  -30.6546 13.4335 -66.6125
LeftForeArm  28.8063 -20.7198 -3.81634
LeftHand  0.0899195 1.7132 5.6158
HEad  -2.67681 -42.5577 -6.42853
RightUpLeg  -11.2321 -13.8882 0.73043
RightLeg  7.85555 -3.03531 -0.219616
RightFoot  4.52146 0.0239566 -0.229249
RightToes  -31.9632 -0.157671 -0.265376
451
root  46.17 34.863 54.7733 5.35112 44.1987 -4.66396
LeftUpLeg  -8.50889 2.78769 13.7971
LeftLeg  9.35932 9.30154 0.919532
LeftFoot  6.9857 -0.0694841 1.13834
LeftToes  -26.2794 1.61378e-006 8.80029e-008
Spine  2.5401 2.00607 0.272498
Spine1  4.76632 4.37228 -0.000441438
RightShoulder  0.0388659 9.39402 5.68221
RightArm  -65.9203 14.9534 34.7663
RightForeArm  13.0511 73.4014 36.4452
RightHand  1.69368 -19.7533 -9.33222
LeftShoulder1  0.0151231 -0.676439 -6.39896
LeftArm  -30.2622 13.356 -67.294
LeftForeArm  28.8387 -20.612 -3.79458
LeftHand  0.0825673 1.61731 5.45132
HEad  -3.13802 -42.828 -5.74867
RightUpLeg  -11.2065 -13.5604 1.50751
RightLeg  8.3603 -3.74718 -0.304511
RightFoot  3.43454 0.0214324 -0.216371
RightToes  -30.1133 -0.144702 -0.252753
452
root  45.8928 34.8759 55.1625 5.19469 44.7656 -4.78848
LeftUpLeg  -8.69408 3.753 13.9578
LeftLeg  9.41734 11.9723 1.19253
LeftFoot  8.26729 -0.126474 1.74985
LeftToes  -26.3122 1.61378e-006 8.80029e-008
Spine  2.59476 1.96181 0.420772
Spine1  4.87564 4.29943 0.252097
RightShoulder  0.0400046 9.71115 5.98678
RightArm  -66.4252 15.2259 34.3937
RightForeArm  12.4631 72.5913 34.3859
RightHand  1.26513 -18.3811 -7.43497
LeftShoulder1  0.0146767 -0.845432 -6.29944
LeftArm  -29.8949 13.4015 -68.1012
LeftForeArm  28.4764 -20.4754 -3.76728
LeftHand  0.0852803 1.78134 5.09155
HEad  -3.48255 -42.9241 -5.20963
RightUpLeg  -11.0839 -14.3846 2.38895
RightLeg  8.67794 -3.42456 -0.297335
RightFoot  2.63412 0.0164058 -0.149604
RightToes  -29.0296 -0.137296 -0.245165
453
root  45.6253 34.8904 55.5023 5.19899 45.0824 -4.77483
LeftUpLeg  -8.95827 5.34974 13.8329
LeftLeg  9.41662 14.859 1.4742
LeftFoot  9.52909 -0.210691 2.52739
LeftToes  -25.9568 1.61378e-006 8.80029e-008
Spine  2.5804 1.90077 0.515682
Spine1  4.84483 4.19252 0.40905
RightShoulder  0.0407511 10.1278 6.11334
RightArm  -66.6075 15.9275 33.8939
RightForeArm  10.8538 71.1367 31.211
RightHand  0.477104 -14.2892 -3.43334
LeftShoulder1  0.0149958 -0.942101 -6.29665
LeftArm  -29.5977 13.7832 -68.7011
LeftForeArm  28.3057 -20.3032 -3.73277
LeftHand  0.0850909 1.91914 4.69004
HEad  -3.22224 -42.6631 -5.17207
RightUpLeg  -10.8028 -15.1869 3.14972
RightLeg  8.32908 -2.95473 -0.238305
RightFoot  2.23211 0.0137436 -0.107133
RightToes  -28.0771 -0.130906 -0.238382
454
root  45.369 34.8984 55.7761 5.19313 45.0783 -4.86055
LeftUpLeg  -9.5415 7.34814 13.7033
LeftLeg  10.0086 17.372 1.89492
LeftFoot  10.2401 -0.287734 3.21044
LeftToes  -24.8292 1.61378e-006 8.80029e-008
Spine  2.53186 1.84364 0.628797
Spine1  4.74462 4.10564 0.588949
RightShoulder  0.0414099 10.4538 6.17333
RightArm  -66.5202 17.9692 33.2877
RightForeArm  8.5997 68.3059 26.4135
RightHand  -0.161417 -3.90919 5.08863
LeftShoulder1  0.0159151 -0.976123 -6.41047
LeftArm  -29.5292 14.3894 -69.1968
LeftForeArm  28.4079 -20.173 -3.70663
LeftHand  0.0846046 1.96727 4.53861
HEad  -2.96151 -42.0987 -5.35963
RightUpLeg  -10.5023 -15.0925 3.85075
RightLeg  7.64435 -2.99605 -0.205674
RightFoot  2.1651 0.0143377 -0.105418
RightToes  -27.5088 -0.127148 -0.234284
455
root  45.1324 34.8942 55.9645 5.24319 44.4548 -4.77635
LeftUpLeg  -10.1735 9.22936 13.4773
LeftLeg  11.183 19.7194 2.54269
LeftFoot  10.4057 -0.342005 3.75458
LeftToes  -23.3748 1.61378e-006 8.80029e-008
Spine  2.51539 1.84867 0.691941
Spine1  4.70405 4.15466 0.665419
RightShoulder  0.0419575 10.8047 5.96705
RightArm  -66.7222 21.438 32.7614
RightForeArm  6.08386 63.5194 20.7913
RightHand  -0.343754 -5.11246 8.04805
LeftShoulder1  0.0172687 -1.14757 -6.44102
LeftArm  -29.7746 15.1535 -69.7382
LeftForeArm  28.5666 -19.9823 -3.6684
LeftHand  0.0969241 2.21865 4.61784
HEad  -2.7132 -41.2107 -5.76223
RightUpLeg  -10.5806 -15.6447 4.38406
RightLeg  7.6691 -1.81788 -0.125108
RightFoot  1.78089 0.0116368 -0.0453446
RightToes  -26.6846 -0.12177 -0.228276
456
root  44.911 34.888 56.0797 5.3138 42.9761 -4.59886
LeftUpLeg  -10.8649 11.1896 13.2581
LeftLeg  13.2086 21.8867 3.57835
LeftFoot  10.1448 -0.36717 4.13477
LeftToes  -21.7739 1.61378e-006 8.80029e-008
Spine  2.54633 2.0216 0.716005
Spine1  4.75718 4.53891 0.679757
RightShoulder  0.0425086 11.3844 5.82179
RightArm  -68.4334 25.4655 32.0929
RightForeArm  4.47925 59.809 17.6808
RightHand  -1.53393 -17.5802 10.2621
LeftShoulder1  0.0188912 -1.34864 -6.37995
LeftArm  -30.2887 15.6319 -70.369
LeftForeArm  29.1455 -19.0888 -3.49067
LeftHand  0.100557 2.30934 4.60209
HEad  -2.37633 -40.1487 -6.12609
RightUpLeg  -10.6011 -15.9167 4.76323
RightLeg  7.48419 -0.0673426 -0.00306737
RightFoot  1.62167 0.00932405 0.0132828
RightToes  -25.5583 -0.114561 -0.219941
457
root  44.7076 34.8783 56.1305 5.38988 40.7669 -4.39342
LeftUpLeg  -11.5939 13.0483 13.0391
LeftLeg  15.9196 24.3999 5.11843
LeftFoot  9.66636 -0.380965 4.50319
LeftToes  -20.3022 1.61378e-006 8.80029e-008
Spine  2.50743 2.2714 0.722818
Spine1  4.66577 5.07891 0.674708
RightShoulder  0.0431972 12.2911 6.01371
RightArm  -70.4609 30.4701 30.1967
RightForeArm  3.54022 54.2142 14.1759
RightHand  -2.34284 -17.8655 15.1888
LeftShoulder1  0.0206169 -1.54096 -6.4858
LeftArm  -30.2694 16.1983 -70.7282
LeftForeArm  29.3605 -17.8149 -3.24099
LeftHand  0.107032 2.5343 4.45379
HEad  -1.66281 -38.7645 -6.56814
RightUpLeg  -10.5312 -15.2261 5.00387
RightLeg  7.02365 1.38627 0.0822792
RightFoot  1.8243 0.00761974 0.0644342
RightToes  -25.4572 -0.112397 -0.21884
458
root  44.5467 34.8576 56.1245 5.35512 38.2551 -4.24055
LeftUpLeg  -12.3122 14.7704 12.8513
LeftLeg  19.0883 26.4321 6.99129
LeftFoot  8.48382 -0.327039 4.4071
LeftToes  -17.2103 1.61378e-006 8.80029e-008
Spine  2.39048 2.53132 0.684642
Spine1  4.41508 5.63754 0.595447
RightShoulder  0.0444734 12.7123 5.65973
RightArm  -70.3106 35.3199 27.1329
RightForeArm  3.22645 46.1106 10.5609
RightHand  -0.269201 -3.93989 8.17093
LeftShoulder1  0.0222802 -1.75076 -6.39093
LeftArm  -29.6467 17.0073 -71.1302
LeftForeArm  29.6229 -17.0068 -3.08446
LeftHand  0.108852 2.68811 4.25593
HEad  -0.427744 -36.9897 -7.30709
RightUpLeg  -10.547 -14.7241 5.17047
RightLeg  6.86048 3.31833 0.185579
RightFoot  1.99642 0.00407751 0.143479
RightToes  -25.9698 -0.112433 -0.220689
459
root  44.4188 34.8295 56.0821 5.1823 35.743 -4.15631
LeftUpLeg  -12.79 16.1163 12.785
LeftLeg  21.829 26.9635 8.45086
LeftFoot  6.94481 -0.228898 3.77089
LeftToes  -13.8656 1.61378e-006 8.80029e-008
Spine  2.35526 2.78616 0.650612
Spine1  4.31268 6.2569 0.453175
RightShoulder  0.0459104 13.9886 4.78794
RightArm  -68.5188 38.2967 21.8282
RightForeArm  10.0434 35.4584 7.20971
RightHand  -2.17266 23.2204 -10.1789
LeftShoulder1  0.0250669 -1.74207 -6.50956
LeftArm  -28.2505 17.3536 -71.176
LeftForeArm  30.0349 -16.321 -2.95264
LeftHand  0.116695 3.02709 4.03512
HEad  0.323271 -35.0619 -7.53424
RightUpLeg  -10.7854 -13.7775 5.27467
RightLeg  7.38237 4.80779 0.312167
RightFoot  1.90399 0.00297802 0.198259
RightToes  -25.7663 -0.113305 -0.221491
